<svg width="62.768745" height="100" viewBox="0 0 62.768745 100" xmlns="http://www.w3.org/2000/svg">
	<g transform="matrix(0.62476259,0,0,0.62476259,-33.394731,-29.319033)">
		<g fill="#003e6b" stroke="none">
			<path d="M 124.00783,50.185902 123.80172,92.6211 101.83019,173.56455 82.485442,206.72451 Z" />
			<path d="m 123.80172,92.6211 17.9197,46.97571 -39.89123,33.96774 5.33558,-19.64849 23.59317,-18.64201 -11.39746,-26.27895 z"/>
			<path d="m 82.485442,206.72451 19.344748,-33.15996 39.89123,-33.96774 11.93403,2.24049 z" />
			<path d="m 124.00783,50.185902 -0.20611,42.435198 17.9197,46.97571 11.93403,2.24049 z" />
			<path d="M 58.693,138.3 76.137558,178.4096 109.8013,47.192858 124.00783,50.185902 82.485442,206.72451 70.801347,199.66182 53.716456,159.0204 Z" />
			<path d="m 58.693,138.3 14.012232,-8.49006 10.186746,22.37169 -6.75442,26.22797 z" />
		</g>
		<g fill="none" stroke="#84c5f4" stroke-width="0.53" stroke-linecap="round" stroke-linejoin="round">
			<path d="M 124.00783,50.185904 153.65545,141.8373 82.485442,206.72451 Z" />
			<path d="m 123.80172,92.6211 -21.97153,80.94345 39.89123,-33.96774 z" />
			<path d="M 130.75894,135.27405 119.36148,108.9951 107.16577,153.91606 Z" />
			<path d="M 58.693,138.3 76.137558,178.4096 109.8013,47.192858 124.00783,50.185902 82.485442,206.72451 70.801347,199.66182 53.716456,159.0204 Z" />
			<path d="m 58.693,138.3 14.012232,-8.49006 10.186746,22.37169 -6.75442,26.22797 z" />
		</g>
	</g>
</svg>
