{
	"asset":{
		"generator":"Khronos glTF Blender I/O v4.3.47",
		"version":"2.0"
	},
	"extensionsUsed":[
		"EXT_texture_webp"
	],
	"extensionsRequired":[
		"EXT_texture_webp"
	],
	"scene":0,
	"scenes":[
		{
			"name":"Scene",
			"nodes":[
				0,
				1,
				2,
				3
			]
		}
	],
	"nodes":[
		{
			"mesh":0,
			"name":"Floor",
			"translation":[
				-0.004124760627746582,
				0,
				0
			]
		},
		{
			"mesh":1,
			"name":"Wall",
			"translation":[
				0.004124760627746582,
				3,
				0
			]
		},
		{
			"mesh":2,
			"name":"Window",
			"translation":[
				-3.995875358581543,
				0,
				4.282443523406982
			]
		},
		{
			"mesh":3,
			"name":"Unused_Materials",
			"translation":[
				0,
				-0.06326998770236969,
				0
			]
		}
	],
	"materials":[
		{
			"doubleSided":true,
			"name":"Wood floor",
			"normalTexture":{
				"index":0
			},
			"pbrMetallicRoughness":{
				"baseColorTexture":{
					"index":1
				},
				"metallicFactor":0,
				"metallicRoughnessTexture":{
					"index":2
				}
			}
		},
		{
			"doubleSided":true,
			"name":"Plaster",
			"normalTexture":{
				"index":3
			},
			"pbrMetallicRoughness":{
				"baseColorTexture":{
					"index":4
				},
				"metallicFactor":0,
				"metallicRoughnessTexture":{
					"index":5
				}
			}
		},
		{
			"doubleSided":true,
			"name":"Metal",
			"normalTexture":{
				"index":6
			},
			"pbrMetallicRoughness":{
				"baseColorTexture":{
					"index":7
				},
				"metallicFactor":0.8727272748947144,
				"metallicRoughnessTexture":{
					"index":8
				}
			}
		},
		{
			"alphaMode":"BLEND",
			"doubleSided":true,
			"name":"Glass",
			"pbrMetallicRoughness":{
				"baseColorFactor":[
					0.04543284326791763,
					0.041513875126838684,
					0.800039529800415,
					0.10000000149011612
				],
				"metallicFactor":0.19090908765792847,
				"roughnessFactor":0.5
			}
		},
		{
			"doubleSided":true,
			"name":"Concrete",
			"normalTexture":{
				"index":9
			},
			"pbrMetallicRoughness":{
				"baseColorTexture":{
					"index":10
				},
				"metallicFactor":0,
				"metallicRoughnessTexture":{
					"index":11
				}
			}
		},
		{
			"doubleSided":true,
			"name":"Marble",
			"normalTexture":{
				"index":12
			},
			"pbrMetallicRoughness":{
				"baseColorTexture":{
					"index":13
				},
				"metallicFactor":0,
				"metallicRoughnessTexture":{
					"index":14
				}
			}
		}
	],
	"meshes":[
		{
			"name":"Plane",
			"primitives":[
				{
					"attributes":{
						"POSITION":0,
						"NORMAL":1,
						"TEXCOORD_0":2
					},
					"indices":3,
					"material":0
				}
			]
		},
		{
			"name":"Plane.001",
			"primitives":[
				{
					"attributes":{
						"POSITION":4,
						"NORMAL":5,
						"TEXCOORD_0":6
					},
					"indices":7,
					"material":1
				}
			]
		},
		{
			"name":"Plane.003",
			"primitives":[
				{
					"attributes":{
						"POSITION":8,
						"NORMAL":9,
						"TEXCOORD_0":10
					},
					"indices":11,
					"material":2
				},
				{
					"attributes":{
						"POSITION":12,
						"NORMAL":13,
						"TEXCOORD_0":14
					},
					"indices":15,
					"material":3
				}
			]
		},
		{
			"name":"Plane.005",
			"primitives":[
				{
					"attributes":{
						"POSITION":16,
						"NORMAL":17,
						"TEXCOORD_0":18
					},
					"indices":19,
					"material":4
				},
				{
					"attributes":{
						"POSITION":20,
						"NORMAL":21,
						"TEXCOORD_0":22
					},
					"indices":23,
					"material":5
				}
			]
		}
	],
	"textures":[
		{
			"extensions":{
				"EXT_texture_webp":{
					"source":0
				}
			},
			"sampler":0
		},
		{
			"extensions":{
				"EXT_texture_webp":{
					"source":1
				}
			},
			"sampler":0
		},
		{
			"extensions":{
				"EXT_texture_webp":{
					"source":2
				}
			},
			"sampler":0
		},
		{
			"extensions":{
				"EXT_texture_webp":{
					"source":3
				}
			},
			"sampler":0
		},
		{
			"extensions":{
				"EXT_texture_webp":{
					"source":4
				}
			},
			"sampler":0
		},
		{
			"extensions":{
				"EXT_texture_webp":{
					"source":5
				}
			},
			"sampler":0
		},
		{
			"extensions":{
				"EXT_texture_webp":{
					"source":6
				}
			},
			"sampler":0
		},
		{
			"extensions":{
				"EXT_texture_webp":{
					"source":7
				}
			},
			"sampler":0
		},
		{
			"extensions":{
				"EXT_texture_webp":{
					"source":8
				}
			},
			"sampler":0
		},
		{
			"extensions":{
				"EXT_texture_webp":{
					"source":9
				}
			},
			"sampler":0
		},
		{
			"extensions":{
				"EXT_texture_webp":{
					"source":10
				}
			},
			"sampler":0
		},
		{
			"extensions":{
				"EXT_texture_webp":{
					"source":11
				}
			},
			"sampler":0
		},
		{
			"extensions":{
				"EXT_texture_webp":{
					"source":12
				}
			},
			"sampler":0
		},
		{
			"extensions":{
				"EXT_texture_webp":{
					"source":13
				}
			},
			"sampler":0
		},
		{
			"extensions":{
				"EXT_texture_webp":{
					"source":14
				}
			},
			"sampler":0
		}
	],
	"images":[
		{
			"mimeType":"image/webp",
			"name":"Wood084A_2K-PNG_NormalGL",
			"uri":"textures/Wood084A_2K-PNG_NormalGL.webp"
		},
		{
			"mimeType":"image/webp",
			"name":"Wood084A_2K-PNG_Color",
			"uri":"textures/Wood084A_2K-PNG_Color.webp"
		},
		{
			"mimeType":"image/webp",
			"name":"Wood084A_2K-PNG_Roughness",
			"uri":"textures/Wood084A_2K-PNG_Roughness.webp"
		},
		{
			"mimeType":"image/webp",
			"name":"Plaster001_2K-PNG_NormalGL",
			"uri":"textures/Plaster001_2K-PNG_NormalGL.webp"
		},
		{
			"mimeType":"image/webp",
			"name":"Plaster001_2K-PNG_Color",
			"uri":"textures/Plaster001_2K-PNG_Color.webp"
		},
		{
			"mimeType":"image/webp",
			"name":"Plaster001_2K-PNG_Roughness",
			"uri":"textures/Plaster001_2K-PNG_Roughness.webp"
		},
		{
			"mimeType":"image/webp",
			"name":"Metal028_1K-PNG_NormalGL",
			"uri":"textures/Metal028_1K-PNG_NormalGL.webp"
		},
		{
			"mimeType":"image/webp",
			"name":"Metal028_1K-PNG_Color",
			"uri":"textures/Metal028_1K-PNG_Color.webp"
		},
		{
			"mimeType":"image/webp",
			"name":"Metal028_1K-PNG_Roughness",
			"uri":"textures/Metal028_1K-PNG_Roughness.webp"
		},
		{
			"mimeType":"image/webp",
			"name":"Concrete016_2K-PNG_NormalGL",
			"uri":"textures/Concrete016_2K-PNG_NormalGL.webp"
		},
		{
			"mimeType":"image/webp",
			"name":"Concrete016_2K-PNG_Color",
			"uri":"textures/Concrete016_2K-PNG_Color.webp"
		},
		{
			"mimeType":"image/webp",
			"name":"Concrete016_2K-PNG_Roughness",
			"uri":"textures/Concrete016_2K-PNG_Roughness.webp"
		},
		{
			"mimeType":"image/webp",
			"name":"Marble012_2K-PNG_NormalGL",
			"uri":"textures/Marble012_2K-PNG_NormalGL.webp"
		},
		{
			"mimeType":"image/webp",
			"name":"Marble012_2K-PNG_Color",
			"uri":"textures/Marble012_2K-PNG_Color.webp"
		},
		{
			"mimeType":"image/webp",
			"name":"Marble012_2K-PNG_Roughness",
			"uri":"textures/Marble012_2K-PNG_Roughness.webp"
		}
	],
	"accessors":[
		{
			"bufferView":0,
			"componentType":5126,
			"count":4,
			"max":[
				3.991750478744507,
				0,
				5.366487503051758
			],
			"min":[
				-3.991750478744507,
				0,
				-5.366487503051758
			],
			"type":"VEC3"
		},
		{
			"bufferView":1,
			"componentType":5126,
			"count":4,
			"type":"VEC3"
		},
		{
			"bufferView":2,
			"componentType":5126,
			"count":4,
			"type":"VEC2"
		},
		{
			"bufferView":3,
			"componentType":5123,
			"count":6,
			"type":"SCALAR"
		},
		{
			"bufferView":4,
			"componentType":5126,
			"count":72,
			"max":[
				4,
				0.0891943871974945,
				5.455681800842285
			],
			"min":[
				-4,
				-3,
				-5.455681800842285
			],
			"type":"VEC3"
		},
		{
			"bufferView":5,
			"componentType":5126,
			"count":72,
			"type":"VEC3"
		},
		{
			"bufferView":6,
			"componentType":5126,
			"count":72,
			"type":"VEC2"
		},
		{
			"bufferView":7,
			"componentType":5123,
			"count":108,
			"type":"SCALAR"
		},
		{
			"bufferView":8,
			"componentType":5126,
			"count":600,
			"max":[
				0.028764262795448303,
				3.342489004135132,
				1.0712025165557861
			],
			"min":[
				-0.028764262795448303,
				-1.4379780292510986,
				-9.640822410583496
			],
			"type":"VEC3"
		},
		{
			"bufferView":9,
			"componentType":5126,
			"count":600,
			"type":"VEC3"
		},
		{
			"bufferView":10,
			"componentType":5126,
			"count":600,
			"type":"VEC2"
		},
		{
			"bufferView":11,
			"componentType":5123,
			"count":960,
			"type":"SCALAR"
		},
		{
			"bufferView":12,
			"componentType":5126,
			"count":30,
			"max":[
				0,
				3.342489004135132,
				0.9979050755500793
			],
			"min":[
				0,
				-1.4379780292510986,
				-9.567524909973145
			],
			"type":"VEC3"
		},
		{
			"bufferView":13,
			"componentType":5126,
			"count":30,
			"type":"VEC3"
		},
		{
			"bufferView":14,
			"componentType":5126,
			"count":30,
			"type":"VEC2"
		},
		{
			"bufferView":15,
			"componentType":5123,
			"count":60,
			"type":"SCALAR"
		},
		{
			"bufferView":16,
			"componentType":5126,
			"count":8,
			"max":[
				1,
				0,
				1
			],
			"min":[
				-1,
				0,
				-1
			],
			"type":"VEC3"
		},
		{
			"bufferView":17,
			"componentType":5126,
			"count":8,
			"type":"VEC3"
		},
		{
			"bufferView":18,
			"componentType":5126,
			"count":8,
			"type":"VEC2"
		},
		{
			"bufferView":19,
			"componentType":5123,
			"count":18,
			"type":"SCALAR"
		},
		{
			"bufferView":20,
			"componentType":5126,
			"count":4,
			"max":[
				1,
				0,
				0
			],
			"min":[
				0,
				0,
				-1
			],
			"type":"VEC3"
		},
		{
			"bufferView":21,
			"componentType":5126,
			"count":4,
			"type":"VEC3"
		},
		{
			"bufferView":22,
			"componentType":5126,
			"count":4,
			"type":"VEC2"
		},
		{
			"bufferView":23,
			"componentType":5123,
			"count":6,
			"type":"SCALAR"
		}
	],
	"bufferViews":[
		{
			"buffer":0,
			"byteLength":48,
			"byteOffset":0,
			"target":34962
		},
		{
			"buffer":0,
			"byteLength":48,
			"byteOffset":48,
			"target":34962
		},
		{
			"buffer":0,
			"byteLength":32,
			"byteOffset":96,
			"target":34962
		},
		{
			"buffer":0,
			"byteLength":12,
			"byteOffset":128,
			"target":34963
		},
		{
			"buffer":0,
			"byteLength":864,
			"byteOffset":140,
			"target":34962
		},
		{
			"buffer":0,
			"byteLength":864,
			"byteOffset":1004,
			"target":34962
		},
		{
			"buffer":0,
			"byteLength":576,
			"byteOffset":1868,
			"target":34962
		},
		{
			"buffer":0,
			"byteLength":216,
			"byteOffset":2444,
			"target":34963
		},
		{
			"buffer":0,
			"byteLength":7200,
			"byteOffset":2660,
			"target":34962
		},
		{
			"buffer":0,
			"byteLength":7200,
			"byteOffset":9860,
			"target":34962
		},
		{
			"buffer":0,
			"byteLength":4800,
			"byteOffset":17060,
			"target":34962
		},
		{
			"buffer":0,
			"byteLength":1920,
			"byteOffset":21860,
			"target":34963
		},
		{
			"buffer":0,
			"byteLength":360,
			"byteOffset":23780,
			"target":34962
		},
		{
			"buffer":0,
			"byteLength":360,
			"byteOffset":24140,
			"target":34962
		},
		{
			"buffer":0,
			"byteLength":240,
			"byteOffset":24500,
			"target":34962
		},
		{
			"buffer":0,
			"byteLength":120,
			"byteOffset":24740,
			"target":34963
		},
		{
			"buffer":0,
			"byteLength":96,
			"byteOffset":24860,
			"target":34962
		},
		{
			"buffer":0,
			"byteLength":96,
			"byteOffset":24956,
			"target":34962
		},
		{
			"buffer":0,
			"byteLength":64,
			"byteOffset":25052,
			"target":34962
		},
		{
			"buffer":0,
			"byteLength":36,
			"byteOffset":25116,
			"target":34963
		},
		{
			"buffer":0,
			"byteLength":48,
			"byteOffset":25152,
			"target":34962
		},
		{
			"buffer":0,
			"byteLength":48,
			"byteOffset":25200,
			"target":34962
		},
		{
			"buffer":0,
			"byteLength":32,
			"byteOffset":25248,
			"target":34962
		},
		{
			"buffer":0,
			"byteLength":12,
			"byteOffset":25280,
			"target":34963
		}
	],
	"samplers":[
		{
			"magFilter":9729,
			"minFilter":9987
		}
	],
	"buffers":[
		{
			"byteLength":25292,
			"uri":"room.bin"
		}
	]
}
