<svg width="1000" height="1000" xmlns="http://www.w3.org/2000/svg" stroke="null">
 <g stroke="null">
  <title stroke="null">Layer 1</title>
  <line stroke-linecap="undefined" stroke-linejoin="undefined" id="svg_2" y2="446.35652" x2="596.48082" y1="430.35652" x1="596.48082" fill="none" stroke="#000"/>
  <line stroke-linecap="undefined" stroke-linejoin="undefined" id="svg_2" y2="445.68896" x2="596" y1="445.68896" x1="440" fill="none" stroke="#000"/>
  <line stroke-linecap="undefined" stroke-linejoin="undefined" id="svg_1" y2="446" x2="100" y1="446" x1="180" fill="none" stroke="#000"/>
  <line stroke-linecap="undefined" stroke-linejoin="undefined" id="svg_3" y2="706" x2="596" y1="450" x1="596" fill="none" stroke="#000"/>
  <line fill="none" x1="596" y1="430" x2="600" y2="430" id="svg_4" stroke-linejoin="undefined" stroke-linecap="undefined" stroke="#000"/>
  <line fill="none" x1="596" y1="410" x2="600" y2="410" id="svg_5" stroke-linejoin="undefined" stroke-linecap="undefined" stroke="#000"/>
  <line stroke-linecap="undefined" stroke-linejoin="undefined" id="svg_8" y2="410" x2="596" y1="394" x1="596" fill="none" stroke="#000"/>
  <line stroke-linecap="undefined" stroke-linejoin="undefined" id="svg_9" y2="546" x2="896" y1="154" x1="896" fill="none" stroke="#000"/>
  <line stroke-linecap="undefined" stroke-linejoin="undefined" id="svg_10" y2="320" x2="300" y1="320" x1="296" fill="none" stroke="#000"/>
  <line stroke-linecap="undefined" stroke-linejoin="undefined" id="svg_11" y2="394" x2="596" y1="394" x1="320" fill="none" stroke="#000"/>
  <line stroke-linecap="undefined" stroke-linejoin="undefined" id="svg_12" y2="450" x2="596" y1="450" x1="440" fill="none" stroke="#000"/>
  <line stroke-linecap="undefined" stroke-linejoin="undefined" id="svg_13" y2="450" x2="440" y1="446" x1="440" fill="none" stroke="#000"/>
  <line stroke-linecap="undefined" stroke-linejoin="undefined" id="svg_14" y2="450" x2="420" y1="446" x1="420" fill="none" stroke="#000"/>
  <line stroke-linecap="undefined" stroke-linejoin="undefined" id="svg_15" y2="450" x2="420" y1="450" x1="354" fill="none" stroke="#000"/>
  <line stroke-linecap="undefined" stroke-linejoin="undefined" id="svg_16" y2="446" x2="200" y1="446" x1="420" fill="none" stroke="#000"/>
  <line stroke-linecap="undefined" stroke-linejoin="undefined" id="svg_17" y2="450" x2="200" y1="446" x1="200" fill="none" stroke="#000"/>
  <line stroke-linecap="undefined" stroke-linejoin="undefined" id="svg_18" y2="450" x2="180" y1="446" x1="180" fill="none" stroke="#000"/>
  <line stroke-linecap="undefined" stroke-linejoin="undefined" id="svg_19" y2="296" x2="300" y1="300" x1="300" fill="none" stroke="#000"/>
  <line stroke-linecap="undefined" stroke-linejoin="undefined" id="svg_20" y2="706" x2="596" y1="706" x1="354" fill="none" stroke="#000"/>
  <line stroke-linecap="undefined" stroke-linejoin="undefined" id="svg_21" y2="710" x2="96" y1="430" x1="96" fill="none" stroke="#000"/>
  <line stroke-linecap="undefined" stroke-linejoin="undefined" id="svg_22" y2="446" x2="100" y1="430" x1="100" fill="none" stroke="#000"/>
  <line stroke-linecap="undefined" stroke-linejoin="undefined" id="svg_23" y2="430" x2="96" y1="430" x1="100" fill="none" stroke="#000"/>
  <line stroke-linecap="undefined" stroke-linejoin="undefined" id="svg_24" y2="410" x2="100" y1="410" x1="96" fill="none" stroke="#000"/>
  <line stroke-linecap="undefined" stroke-linejoin="undefined" id="svg_25" y2="394" x2="100" y1="410" x1="100" fill="none" stroke="#000"/>
  <line stroke-linecap="undefined" stroke-linejoin="undefined" id="svg_26" y2="394" x2="300" y1="394" x1="100" fill="none" stroke="#000"/>
  <line stroke-linecap="undefined" stroke-linejoin="undefined" id="svg_27" y2="394" x2="300" y1="320" x1="300" fill="none" stroke="#000"/>
  <line stroke-linecap="undefined" stroke-linejoin="undefined" id="svg_28" y2="394" x2="320" y1="390" x1="320" fill="none" stroke="#000"/>
  <line stroke-linecap="undefined" stroke-linejoin="undefined" id="svg_29" y2="546" x2="896" y1="546" x1="780" fill="none" stroke="#000"/>
  <line stroke-linecap="undefined" stroke-linejoin="undefined" id="svg_6" y2="450" x2="100" y1="450" x1="180" fill="none" stroke="#000"/>
  <line stroke-linecap="undefined" stroke-linejoin="undefined" id="svg_30" y2="706.4516" x2="100" y1="450" x1="100" fill="none" stroke="#000"/>
  <line stroke-linecap="undefined" stroke-linejoin="undefined" id="svg_31" y2="706" x2="354" y1="450" x1="354" fill="none" stroke="#000"/>
  <line stroke-linecap="undefined" stroke-linejoin="undefined" id="svg_32" y2="706" x2="350" y1="706" x1="100" fill="none" stroke="#000"/>
  <line stroke-linecap="undefined" stroke-linejoin="undefined" id="svg_33" y2="450" x2="350" y1="706" x1="350" fill="none" stroke="#000"/>
  <line stroke-linecap="undefined" stroke-linejoin="undefined" id="svg_34" y2="450" x2="200" y1="450" x1="350" fill="none" stroke="#000"/>
  <line stroke-linecap="undefined" stroke-linejoin="undefined" id="svg_35" y2="550" x2="600" y1="710" x1="600" fill="none" stroke="#000"/>
  <line stroke-linecap="undefined" stroke-linejoin="undefined" id="svg_36" y2="550" x2="600" y1="550" x1="760" fill="none" stroke="#000"/>
  <line stroke-linecap="undefined" stroke-linejoin="undefined" id="svg_37" y2="390" x2="596" y1="154" x1="596" fill="none" stroke="#000"/>
  <line stroke-linecap="undefined" stroke-linejoin="undefined" id="svg_38" y2="300" x2="100" y1="390" x1="100" fill="none" stroke="#000"/>
  <line stroke-linecap="undefined" stroke-linejoin="undefined" id="svg_39" y2="390" x2="296" y1="390" x1="100" fill="none" stroke="#000"/>
  <line stroke-linecap="undefined" stroke-linejoin="undefined" id="svg_40" y2="320" x2="296" y1="390" x1="296" fill="none" stroke="#000"/>
  <line stroke-linecap="undefined" stroke-linejoin="undefined" id="svg_41" y2="296" x2="100" y1="296" x1="300" fill="none" stroke="#000"/>
  <line stroke-linecap="undefined" stroke-linejoin="undefined" id="svg_42" y2="300" x2="300" y1="300" x1="100" fill="none" stroke="#000"/>
  <line stroke-linecap="undefined" stroke-linejoin="undefined" id="svg_43" y2="150" x2="96" y1="410" x1="96" fill="none" stroke="#000"/>
  <line stroke-linecap="undefined" stroke-linejoin="undefined" id="svg_44" y2="390" x2="596" y1="390" x1="320" fill="none" stroke="#000"/>
  <line stroke-linecap="undefined" stroke-linejoin="undefined" id="svg_45" y2="154" x2="100" y1="296" x1="100" fill="none" stroke="#000"/>
  <line stroke-linecap="undefined" stroke-linejoin="undefined" id="svg_46" y2="154" x2="596" y1="154" x1="100" fill="none" stroke="#000"/>
  <line stroke-linecap="undefined" stroke-linejoin="undefined" id="svg_47" y2="154" x2="600" y1="410" x1="600" fill="none" stroke="#000"/>
  <line stroke-linecap="undefined" stroke-linejoin="undefined" id="svg_48" y2="710" x2="600" y1="710" x1="96" fill="none" stroke="#000"/>
  <line stroke-linecap="undefined" stroke-linejoin="undefined" id="svg_49" y2="150" x2="900" y1="150" x1="96" fill="none" stroke="#000"/>
  <line stroke-linecap="undefined" stroke-linejoin="undefined" id="svg_50" y2="154" x2="896" y1="154" x1="600" fill="none" stroke="#000"/>
  <line stroke-linecap="undefined" stroke-linejoin="undefined" id="svg_51" y2="550" x2="900" y1="150" x1="900" fill="none" stroke="#000"/>
  <line stroke-linecap="undefined" stroke-linejoin="undefined" id="svg_52" y2="550" x2="780" y1="550" x1="900" fill="none" stroke="#000"/>
  <line stroke-linecap="undefined" stroke-linejoin="undefined" id="svg_53" y2="546" x2="780" y1="550" x1="780" fill="none" stroke="#000"/>
  <line stroke-linecap="undefined" stroke-linejoin="undefined" id="svg_54" y2="546" x2="600.28248" y1="430.39548" x1="600.28248" fill="none" stroke="#000"/>
  <line stroke-linecap="undefined" stroke-linejoin="undefined" id="svg_55" y2="546" x2="760" y1="546" x1="600" fill="none" stroke="#000"/>
  <line stroke-linecap="undefined" stroke-linejoin="undefined" id="svg_56" y2="550" x2="760" y1="546" x1="760" fill="none" stroke="#000"/>
 </g>

</svg>